<?xml version="1.0" encoding="utf-8"?>
<!-- Generator: Adobe Illustrator 28.2.0, SVG Export Plug-In . SVG Version: 6.00 Build 0)  -->
<svg version="1.1" id="Layer_1" xmlns="http://www.w3.org/2000/svg" xmlns:xlink="http://www.w3.org/1999/xlink" x="0px" y="0px"
	 viewBox="0 0 2500 2438" style="enable-background:new 0 0 2500 2438;" xml:space="preserve">
<g>
	<path d="M1008.7,845c-39-15.2-80.6-22.3-122.4-21c-26.8,0-50.6,0.3-71.3,0.8c-20.7,0.6-35,1.4-42.8,2.5v347.2
		c14.5,1.1,27.9,1.7,40.2,1.7h55.3c40.6,0.6,81-5.1,119.9-16.8c33.2-9.9,62.9-29.1,85.5-55.3c21.8-25.7,32.7-61.5,32.7-107.3
		c0.9-32.4-7.6-64.5-24.3-92.2C1064,877.7,1038.5,856.9,1008.7,845z"/>
	<path d="M2057.3,0.2H442.7C198.2,0.2,0,198.5,0,443V1995c0,244.5,198.2,442.7,442.7,442.7h1614.6c244.5,0,442.7-198.2,442.7-442.7
		V443C2500,198.5,2301.8,0.2,2057.3,0.2z M1271.9,1213.1c-41.6,58.4-100.2,102.6-167.7,126.6c-75.3,27.1-154.8,40.5-234.8,39.4
		c-24.6,0-41.9-0.3-52-0.8c-10.1-0.6-25.2-0.8-45.3-0.8v330.4c1,7.3-4,14-11.3,15.1c-1.3,0.2-2.5,0.2-3.8,0H552.5
		c-7.8,0-11.7-4.4-11.7-13.4V637.9c0-7.8,3.4-11.7,10.1-11.7c17.9,0,39.1-0.3,63.7-0.8c56.7-1.3,113.5-2.4,170.2-3.4
		c31.9-0.6,63.4-0.8,94.8-0.8c85,0,156.5,10.6,214.7,31.9c52.5,17.7,100.3,47,140,85.5c33.7,33.4,59.7,73.8,76.3,118.2
		c15.7,43.3,23.6,89,23.5,135C1334,1081.2,1313.3,1155,1271.9,1213.1z M1956.2,1084h-159.3v358.9c0,38,6.4,65.1,19.3,81.3
		c12.8,16.2,36.6,24.3,71.3,24.3c18.5,0,37-1.1,55.3-3.4c3-1.1,6.4-0.8,9.2,0.8c2.8,1.7,4.2,5.3,4.2,10.9v137.5
		c0,12.3-4.5,19.6-13.4,21.8c-22,6.9-44.4,12.5-67.1,16.8c-26.6,4.7-53.5,7-80.5,6.7c-72.7,0-129.7-19-171.1-57
		c-41.4-38-62.1-98.9-62.1-182.8V1084h-98.9c-9,0-13.4-5-13.4-15.1v-166c0-8.9,5-13.4,15.1-13.4h98.9c1.1-19,2.5-41.1,4.2-66.2
		c1.7-25.2,3.9-50.3,6.7-75.5c2.8-25.2,5.3-45.6,7.5-61.2c1.1-3.4,2.8-6.5,5-9.2c2.2-2.7,5.1-4.8,8.4-5.9l199.6-25.2
		c4.4-0.7,7.2-0.7,9.2,0.5c2.2,1.1,2.5,4,2.5,9.6c-2.2,25.7-3.9,60.7-5,104.8c-1.1,44.2-2.2,86.9-3.4,128.3h156
		c6.7,0,10.1,4.5,10.1,13.4v169.4C1965.4,1077.8,1961.7,1083,1956.2,1084z"/>
</g>
</svg>
